<svg xmlns="http://www.w3.org/2000/svg" xmlns:xlink="http://www.w3.org/1999/xlink" width="656" zoomAndPan="magnify" viewBox="0 0 492 397.499983" height="530" preserveAspectRatio="xMidYMid meet" version="1.0"><defs><g/><clipPath id="4c412789af"><path d="M 0.308594 0 L 491.691406 0 L 491.691406 397 L 0.308594 397 Z M 0.308594 0 " clip-rule="nonzero"/></clipPath><clipPath id="d5508fb026"><path d="M 67.269531 79.398438 L 431.128906 79.398438 L 431.128906 322.140625 L 67.269531 322.140625 Z M 67.269531 79.398438 " clip-rule="nonzero"/></clipPath><clipPath id="d8ec32c5ff"><path d="M 0.269531 0.398438 L 364.128906 0.398438 L 364.128906 243.140625 L 0.269531 243.140625 Z M 0.269531 0.398438 " clip-rule="nonzero"/></clipPath><clipPath id="d5f3e4e319"><rect x="0" width="365" y="0" height="244"/></clipPath><clipPath id="168332eba9"><rect x="0" width="367" y="0" height="272"/></clipPath></defs><g clip-path="url(#4c412789af)"><path stroke-linecap="butt" transform="matrix(0.749058, 0, 0, 0.749058, 0.309056, 0)" fill="none" stroke-linejoin="miter" d="M 85.002011 7.499005 L 570.998016 7.499005 C 573.537665 7.499005 576.0721 7.624162 578.596104 7.874477 C 581.120108 8.119576 583.628468 8.495048 586.121183 8.990462 C 588.608683 9.485876 591.070109 10.101233 593.495031 10.836531 C 595.925167 11.57183 598.313585 12.427071 600.660283 13.39704 C 603.001766 14.372223 605.296316 15.45692 607.533502 16.651128 C 609.770687 17.845337 611.945294 19.149058 614.057323 20.562292 C 616.169351 21.970311 618.203157 23.482628 620.163953 25.094027 C 622.129965 26.700212 624.007324 28.405479 625.801244 30.1994 C 627.595165 31.99332 629.300432 33.870679 630.906617 35.836691 C 632.518016 37.797487 634.030333 39.831293 635.438352 41.943321 C 636.851586 44.05535 638.150092 46.229957 639.349516 48.467142 C 640.543725 50.704328 641.628421 52.998878 642.598389 55.340361 C 643.573573 57.687059 644.423599 60.075477 645.164113 62.500398 C 645.899412 64.930535 646.514768 67.391961 647.010182 69.879461 C 647.505596 72.372176 647.875853 74.875321 648.126168 77.40454 C 648.376482 79.928544 648.501639 82.462979 648.501639 84.997413 L 648.501639 445.001793 C 648.501639 447.536228 648.376482 450.070662 648.126168 452.594666 C 647.875853 455.123885 647.505596 457.632245 647.010182 460.119745 C 646.514768 462.607246 645.899412 465.068671 645.164113 467.498808 C 644.423599 469.923729 643.573573 472.312147 642.598389 474.658845 C 641.628421 477.000329 640.543725 479.294878 639.349516 481.532064 C 638.150092 483.769249 636.851586 485.943857 635.438352 488.055885 C 634.030333 490.167914 632.518016 492.201719 630.906617 494.16773 C 629.300432 496.128527 627.595165 498.005886 625.801244 499.799806 C 624.007324 501.593727 622.129965 503.298994 620.163953 504.910394 C 618.203157 506.516578 616.169351 508.028895 614.057323 509.436914 C 611.945294 510.850148 609.770687 512.153869 607.533502 513.348078 C 605.296316 514.547502 603.001766 515.626983 600.660283 516.602166 C 598.313585 517.572135 595.925167 518.427376 593.495031 519.162675 C 591.070109 519.897974 588.608683 520.51333 586.121183 521.008744 C 583.628468 521.504158 581.120108 521.87963 578.596104 522.12473 C 576.0721 522.375044 573.537665 522.500201 570.998016 522.500201 L 85.002011 522.500201 C 82.462362 522.500201 79.927928 522.375044 77.403923 522.12473 C 74.879919 521.87963 72.371559 521.504158 69.878844 521.008744 C 67.391344 520.51333 64.929918 519.897974 62.504996 519.162675 C 60.07486 518.427376 57.686443 517.572135 55.339744 516.602166 C 52.998261 515.626983 50.703711 514.547502 48.466526 513.348078 C 46.22934 512.153869 44.054733 510.850148 41.942704 509.436914 C 39.830676 508.028895 37.796871 506.516578 35.836074 504.910394 C 33.870062 503.298994 31.992704 501.593727 30.198783 499.799806 C 28.404863 498.005886 26.699595 496.128527 25.093411 494.16773 C 23.482011 492.201719 21.969694 490.167914 20.561675 488.055885 C 19.148441 485.943857 17.849935 483.769249 16.650511 481.532064 C 15.456303 479.294878 14.371607 477.000329 13.401638 474.658845 C 12.426455 472.312147 11.576428 469.923729 10.835915 467.498808 C 10.100616 465.068671 9.485259 462.607246 8.989845 460.119745 C 8.494431 457.632245 8.124174 455.123885 7.87386 452.594666 C 7.623545 450.070662 7.498388 447.536228 7.498388 445.001793 L 7.498388 84.997413 C 7.498388 82.462979 7.623545 79.928544 7.87386 77.40454 C 8.124174 74.875321 8.494431 72.372176 8.989845 69.879461 C 9.485259 67.391961 10.100616 64.930535 10.835915 62.500398 C 11.576428 60.075477 12.426455 57.687059 13.401638 55.340361 C 14.371607 52.998878 15.456303 50.704328 16.650511 48.467142 C 17.849935 46.229957 19.148441 44.05535 20.561675 41.943321 C 21.969694 39.831293 23.482011 37.797487 25.093411 35.836691 C 26.699595 33.870679 28.404863 31.99332 30.198783 30.1994 C 31.992704 28.405479 33.870062 26.700212 35.836074 25.094027 C 37.796871 23.482628 39.830676 21.970311 41.942704 20.562292 C 44.054733 19.149058 46.22934 17.845337 48.466526 16.651128 C 50.703711 15.45692 52.998261 14.372223 55.339744 13.39704 C 57.686443 12.427071 60.07486 11.57183 62.504996 10.836531 C 64.929918 10.101233 67.391344 9.485876 69.878844 8.990462 C 72.371559 8.495048 74.879919 8.119576 77.403923 7.874477 C 79.927928 7.624162 82.462362 7.499005 85.002011 7.499005 Z M 85.002011 7.499005 " stroke="#ff6e14" stroke-width="15" stroke-opacity="1" stroke-miterlimit="4"/></g><path fill="#3d2fa9" d="M 67.722656 29.960938 L 424.277344 29.960938 C 425.503906 29.960938 426.726562 30.023438 427.945312 30.144531 C 429.167969 30.261719 430.378906 30.441406 431.582031 30.683594 C 432.785156 30.921875 433.972656 31.21875 435.148438 31.574219 C 436.320312 31.929688 437.476562 32.34375 438.609375 32.8125 C 439.742188 33.28125 440.847656 33.804688 441.929688 34.382812 C 443.011719 34.964844 444.0625 35.59375 445.082031 36.273438 C 446.101562 36.957031 447.085938 37.6875 448.035156 38.464844 C 448.984375 39.242188 449.890625 40.066406 450.757812 40.933594 C 451.625 41.800781 452.449219 42.707031 453.226562 43.65625 C 454.003906 44.605469 454.734375 45.585938 455.417969 46.609375 C 456.097656 47.628906 456.726562 48.679688 457.304688 49.761719 C 457.882812 50.84375 458.410156 51.949219 458.878906 53.082031 C 459.347656 54.214844 459.761719 55.371094 460.117188 56.542969 C 460.472656 57.71875 460.769531 58.90625 461.007812 60.109375 C 461.25 61.3125 461.429688 62.523438 461.546875 63.746094 C 461.667969 64.964844 461.730469 66.1875 461.730469 67.414062 L 461.730469 329.585938 C 461.730469 330.8125 461.667969 332.035156 461.546875 333.257812 C 461.429688 334.476562 461.25 335.6875 461.007812 336.890625 C 460.769531 338.09375 460.472656 339.285156 460.117188 340.457031 C 459.761719 341.632812 459.347656 342.785156 458.878906 343.917969 C 458.410156 345.050781 457.882812 346.160156 457.304688 347.242188 C 456.726562 348.324219 456.097656 349.375 455.417969 350.394531 C 454.734375 351.414062 454.003906 352.398438 453.226562 353.34375 C 452.449219 354.292969 451.625 355.203125 450.757812 356.070312 C 449.890625 356.9375 448.984375 357.757812 448.035156 358.535156 C 447.085938 359.316406 446.101562 360.042969 445.082031 360.726562 C 444.0625 361.40625 443.011719 362.039062 441.929688 362.617188 C 440.847656 363.195312 439.742188 363.71875 438.609375 364.1875 C 437.476562 364.65625 436.320312 365.070312 435.148438 365.425781 C 433.972656 365.78125 432.785156 366.078125 431.582031 366.320312 C 430.378906 366.558594 429.167969 366.738281 427.945312 366.859375 C 426.726562 366.976562 425.503906 367.039062 424.277344 367.039062 L 67.722656 367.039062 C 66.496094 367.039062 65.273438 366.976562 64.054688 366.859375 C 62.832031 366.738281 61.621094 366.558594 60.417969 366.320312 C 59.214844 366.078125 58.027344 365.78125 56.851562 365.425781 C 55.679688 365.070312 54.523438 364.65625 53.390625 364.1875 C 52.257812 363.71875 51.152344 363.195312 50.070312 362.617188 C 48.988281 362.039062 47.9375 361.40625 46.917969 360.726562 C 45.898438 360.042969 44.914062 359.316406 43.964844 358.535156 C 43.015625 357.757812 42.109375 356.9375 41.242188 356.070312 C 40.375 355.203125 39.550781 354.292969 38.773438 353.34375 C 37.996094 352.398438 37.265625 351.414062 36.582031 350.394531 C 35.902344 349.375 35.273438 348.324219 34.695312 347.242188 C 34.117188 346.160156 33.589844 345.050781 33.121094 343.917969 C 32.652344 342.785156 32.238281 341.632812 31.882812 340.457031 C 31.527344 339.285156 31.230469 338.09375 30.992188 336.890625 C 30.75 335.6875 30.570312 334.476562 30.453125 333.257812 C 30.332031 332.035156 30.269531 330.8125 30.269531 329.585938 L 30.269531 67.414062 C 30.269531 66.1875 30.332031 64.964844 30.453125 63.746094 C 30.570312 62.523438 30.75 61.3125 30.992188 60.109375 C 31.230469 58.90625 31.527344 57.71875 31.882812 56.542969 C 32.238281 55.371094 32.652344 54.214844 33.121094 53.082031 C 33.589844 51.949219 34.117188 50.84375 34.695312 49.761719 C 35.273438 48.679688 35.902344 47.628906 36.582031 46.609375 C 37.265625 45.585938 37.996094 44.605469 38.773438 43.65625 C 39.550781 42.707031 40.375 41.800781 41.242188 40.933594 C 42.109375 40.066406 43.015625 39.242188 43.964844 38.464844 C 44.914062 37.6875 45.898438 36.957031 46.917969 36.273438 C 47.9375 35.59375 48.988281 34.964844 50.070312 34.382812 C 51.152344 33.804688 52.257812 33.28125 53.390625 32.8125 C 54.523438 32.34375 55.679688 31.929688 56.851562 31.574219 C 58.027344 31.21875 59.214844 30.921875 60.417969 30.683594 C 61.621094 30.441406 62.832031 30.261719 64.054688 30.144531 C 65.273438 30.023438 66.496094 29.960938 67.722656 29.960938 Z M 67.722656 29.960938 " fill-opacity="1" fill-rule="nonzero"/><path fill="#ffffff" d="M 91.695312 191.757812 L 91.695312 86.890625 L 116.992188 86.890625 C 126.78125 86.890625 133.839844 88.878906 138.164062 92.855469 C 142.535156 96.789062 144.871094 103.320312 145.175781 112.453125 C 145.308594 116.121094 145.375 119.53125 145.375 122.675781 C 145.375 125.824219 145.308594 129.230469 145.175781 132.902344 C 144.871094 141.988281 142.535156 148.523438 138.164062 152.5 C 133.839844 156.476562 126.78125 158.464844 116.992188 158.464844 L 111.355469 158.464844 L 111.355469 191.757812 Z M 111.355469 141.160156 L 116.992188 141.160156 C 119.746094 141.160156 121.820312 140.527344 123.21875 139.257812 C 124.617188 137.992188 125.382812 136.222656 125.515625 133.949219 C 125.644531 131.808594 125.734375 129.40625 125.777344 126.742188 C 125.820312 124.03125 125.820312 121.34375 125.777344 118.679688 C 125.734375 115.96875 125.644531 113.542969 125.515625 111.402344 C 125.382812 109.085938 124.617188 107.316406 123.21875 106.09375 C 121.820312 104.828125 119.746094 104.195312 116.992188 104.195312 L 111.355469 104.195312 Z M 180.660156 193.070312 C 171.050781 193.070312 164.078125 191.039062 159.753906 186.972656 C 155.472656 182.910156 153.222656 176.160156 153.003906 166.722656 C 152.914062 162.4375 152.851562 157.980469 152.808594 153.351562 C 152.761719 148.71875 152.742188 144.023438 152.742188 139.257812 C 152.742188 134.496094 152.761719 129.800781 152.808594 125.167969 C 152.851562 120.535156 152.914062 116.078125 153.003906 111.796875 C 153.222656 102.402344 155.472656 95.695312 159.753906 91.675781 C 164.078125 87.609375 171.050781 85.578125 180.660156 85.578125 C 190.320312 85.578125 197.246094 87.609375 201.4375 91.675781 C 205.632812 95.695312 207.882812 102.402344 208.191406 111.796875 C 208.363281 116.167969 208.496094 120.667969 208.582031 125.296875 C 208.671875 129.929688 208.714844 134.628906 208.714844 139.390625 C 208.714844 144.109375 208.671875 148.785156 208.582031 153.414062 C 208.496094 158.003906 208.363281 162.4375 208.191406 166.722656 C 207.882812 176.160156 205.632812 182.910156 201.4375 186.972656 C 197.246094 191.039062 190.320312 193.070312 180.660156 193.070312 Z M 180.660156 177.078125 C 183.238281 177.078125 185.183594 176.507812 186.496094 175.375 C 187.804688 174.195312 188.484375 172.53125 188.527344 170.390625 C 188.746094 165.933594 188.898438 161.042969 188.984375 155.710938 C 189.074219 150.378906 189.117188 144.894531 189.117188 139.257812 C 189.117188 133.621094 189.074219 128.140625 188.984375 122.808594 C 188.898438 117.476562 188.746094 112.582031 188.527344 108.125 C 188.484375 106.027344 187.785156 104.414062 186.429688 103.277344 C 185.074219 102.140625 183.152344 101.570312 180.660156 101.570312 C 178.171875 101.570312 176.226562 102.140625 174.828125 103.277344 C 173.472656 104.414062 172.753906 106.027344 172.664062 108.125 C 172.492188 112.582031 172.339844 117.476562 172.207031 122.808594 C 172.121094 128.140625 172.078125 133.621094 172.078125 139.257812 C 172.078125 144.894531 172.121094 150.378906 172.207031 155.710938 C 172.339844 161.042969 172.492188 165.933594 172.664062 170.390625 C 172.753906 172.53125 173.472656 174.195312 174.828125 175.375 C 176.226562 176.507812 178.171875 177.078125 180.660156 177.078125 Z M 218.425781 191.757812 L 218.425781 86.890625 L 238.089844 86.890625 L 238.089844 174.457031 L 263.914062 174.457031 L 263.914062 191.757812 Z M 271.167969 191.757812 L 271.167969 86.890625 L 290.832031 86.890625 L 290.832031 191.757812 Z M 313.765625 191.757812 L 313.765625 104.195312 L 296.921875 104.195312 L 296.921875 86.890625 L 350.273438 86.890625 L 350.273438 104.195312 L 333.429688 104.195312 L 333.429688 191.757812 Z M 356.296875 191.757812 L 356.296875 86.890625 L 401.652344 86.890625 L 401.652344 104.195312 L 375.960938 104.195312 L 375.960938 129.753906 L 400.339844 129.753906 L 400.339844 147.058594 L 375.960938 147.058594 L 375.960938 174.457031 L 401.652344 174.457031 L 401.652344 191.757812 Z M 118.894531 310.671875 C 109.019531 310.671875 101.984375 308.640625 97.789062 304.574219 C 93.636719 300.511719 91.453125 293.761719 91.234375 284.324219 C 91.191406 280.695312 91.148438 276.5 91.105469 271.738281 C 91.058594 266.976562 91.039062 262.039062 91.039062 256.925781 C 91.039062 251.769531 91.058594 246.8125 91.105469 242.046875 C 91.148438 237.242188 91.191406 232.980469 91.234375 229.269531 C 91.367188 221.273438 93.59375 214.9375 97.921875 210.261719 C 102.289062 205.542969 109.28125 203.183594 118.894531 203.183594 C 128.332031 203.183594 135.171875 205.214844 139.410156 209.277344 C 143.648438 213.296875 145.898438 220.003906 146.160156 229.398438 C 146.203125 230.839844 146.226562 232.414062 146.226562 234.117188 C 146.226562 235.777344 146.203125 237.460938 146.160156 239.164062 C 146.117188 240.824219 146.074219 242.375 146.027344 243.816406 L 126.367188 243.816406 C 126.410156 242.203125 126.453125 240.300781 126.496094 238.117188 C 126.539062 235.886719 126.5625 233.679688 126.5625 231.496094 C 126.5625 229.269531 126.539062 227.34375 126.496094 225.730469 C 126.453125 223.632812 125.753906 222.015625 124.398438 220.878906 C 123.089844 219.742188 121.253906 219.175781 118.894531 219.175781 C 116.402344 219.175781 114.460938 219.742188 113.0625 220.878906 C 111.707031 222.015625 110.984375 223.632812 110.898438 225.730469 C 110.722656 230.316406 110.59375 235.277344 110.503906 240.605469 C 110.460938 245.9375 110.4375 251.378906 110.4375 256.925781 C 110.4375 262.476562 110.460938 267.917969 110.503906 273.246094 C 110.59375 278.535156 110.722656 283.449219 110.898438 287.992188 C 110.984375 290.136719 111.707031 291.796875 113.0625 292.976562 C 114.460938 294.113281 116.402344 294.679688 118.894531 294.679688 C 121.472656 294.679688 123.460938 294.113281 124.859375 292.976562 C 126.257812 291.796875 126.976562 290.136719 127.023438 287.992188 C 127.066406 286.421875 127.085938 284.542969 127.085938 282.355469 C 127.128906 280.128906 127.128906 277.921875 127.085938 275.738281 C 127.085938 273.507812 127.066406 271.609375 127.023438 270.035156 L 146.683594 270.035156 C 146.773438 272.132812 146.816406 274.515625 146.816406 277.179688 C 146.816406 279.84375 146.773438 282.226562 146.683594 284.324219 C 146.421875 293.761719 144.128906 300.511719 139.800781 304.574219 C 135.519531 308.640625 128.550781 310.671875 118.894531 310.671875 Z M 155.957031 309.359375 L 155.957031 204.492188 L 175.621094 204.492188 L 175.621094 247.359375 L 189.382812 247.359375 L 189.382812 204.492188 L 209.046875 204.492188 L 209.046875 309.359375 L 189.382812 309.359375 L 189.382812 264.660156 L 175.621094 264.660156 L 175.621094 309.359375 Z M 215.648438 309.359375 L 230.195312 204.492188 L 261.132812 204.492188 L 275.683594 309.359375 L 255.496094 309.359375 L 253.269531 287.46875 L 238.0625 287.46875 L 235.832031 309.359375 Z M 239.898438 270.167969 L 251.433594 270.167969 L 249.074219 246.964844 L 247.5 221.796875 L 243.828125 221.796875 L 242.257812 246.964844 Z M 308.164062 310.671875 C 298.550781 310.671875 291.582031 308.640625 287.253906 304.574219 C 282.972656 300.511719 280.722656 293.761719 280.503906 284.324219 C 280.417969 280.042969 280.351562 275.585938 280.308594 270.953125 C 280.261719 266.320312 280.242188 261.625 280.242188 256.859375 C 280.242188 252.097656 280.261719 247.402344 280.308594 242.769531 C 280.351562 238.136719 280.417969 233.679688 280.503906 229.398438 C 280.722656 220.003906 282.972656 213.296875 287.253906 209.277344 C 291.582031 205.214844 298.550781 203.183594 308.164062 203.183594 C 317.820312 203.183594 324.746094 205.214844 328.9375 209.277344 C 333.132812 213.296875 335.386719 220.003906 335.691406 229.398438 C 335.863281 233.769531 335.996094 238.269531 336.082031 242.902344 C 336.171875 247.53125 336.214844 252.230469 336.214844 256.992188 C 336.214844 261.710938 336.171875 266.386719 336.082031 271.019531 C 335.996094 275.605469 335.863281 280.042969 335.691406 284.324219 C 335.386719 293.761719 333.132812 300.511719 328.9375 304.574219 C 324.746094 308.640625 317.820312 310.671875 308.164062 310.671875 Z M 308.164062 294.679688 C 310.742188 294.679688 312.683594 294.113281 313.996094 292.976562 C 315.304688 291.796875 315.984375 290.136719 316.027344 287.992188 C 316.246094 283.535156 316.398438 278.644531 316.488281 273.3125 C 316.574219 267.980469 316.617188 262.496094 316.617188 256.859375 C 316.617188 251.222656 316.574219 245.742188 316.488281 240.410156 C 316.398438 235.078125 316.246094 230.183594 316.027344 225.730469 C 315.984375 223.632812 315.285156 222.015625 313.929688 220.878906 C 312.578125 219.742188 310.652344 219.175781 308.164062 219.175781 C 305.671875 219.175781 303.726562 219.742188 302.328125 220.878906 C 300.976562 222.015625 300.253906 223.632812 300.167969 225.730469 C 299.992188 230.183594 299.839844 235.078125 299.707031 240.410156 C 299.621094 245.742188 299.578125 251.222656 299.578125 256.859375 C 299.578125 262.496094 299.621094 267.980469 299.707031 273.3125 C 299.839844 278.644531 299.992188 283.535156 300.167969 287.992188 C 300.253906 290.136719 300.976562 291.796875 302.328125 292.976562 C 303.726562 294.113281 305.671875 294.679688 308.164062 294.679688 Z M 371.816406 310.671875 C 362.203125 310.671875 355.34375 308.640625 351.238281 304.574219 C 347.171875 300.511719 344.945312 293.761719 344.550781 284.324219 C 344.507812 282.925781 344.484375 281.394531 344.484375 279.734375 C 344.484375 278.03125 344.53125 276.347656 344.617188 274.6875 C 344.703125 272.984375 344.855469 271.433594 345.074219 270.035156 L 363.558594 270.035156 C 363.382812 273.226562 363.273438 276.371094 363.230469 279.472656 C 363.1875 282.574219 363.296875 285.414062 363.558594 287.992188 C 363.777344 290.136719 364.542969 291.796875 365.851562 292.976562 C 367.207031 294.113281 369.195312 294.679688 371.816406 294.679688 C 374.394531 294.679688 376.273438 294.113281 377.453125 292.976562 C 378.675781 291.796875 379.417969 290.136719 379.683594 287.992188 C 379.855469 286.507812 379.964844 285.042969 380.007812 283.601562 C 380.097656 282.117188 380.097656 280.652344 380.007812 279.210938 C 379.964844 277.726562 379.855469 276.238281 379.683594 274.753906 C 379.507812 272.917969 378.9375 271.257812 377.976562 269.773438 C 377.015625 268.289062 375.488281 267.28125 373.390625 266.757812 L 362.640625 264.003906 C 358.097656 262.824219 354.492188 261.144531 351.824219 258.957031 C 349.160156 256.730469 347.214844 253.976562 345.992188 250.699219 C 344.8125 247.421875 344.15625 243.597656 344.027344 239.230469 C 343.984375 237.308594 343.960938 235.601562 343.960938 234.117188 C 343.960938 232.589844 343.984375 231.015625 344.027344 229.398438 C 344.289062 223.148438 345.335938 218.105469 347.171875 214.257812 C 349.050781 210.414062 351.980469 207.617188 355.957031 205.867188 C 359.933594 204.078125 365.21875 203.183594 371.816406 203.183594 C 381.125 203.183594 387.875 205.214844 392.070312 209.277344 C 396.265625 213.296875 398.558594 220.003906 398.953125 229.398438 C 399.039062 231.277344 399.039062 233.570312 398.953125 236.28125 C 398.90625 238.988281 398.820312 241.503906 398.6875 243.816406 L 379.8125 243.816406 C 379.945312 240.804688 380.03125 237.789062 380.074219 234.773438 C 380.117188 231.757812 380.074219 228.742188 379.945312 225.730469 C 379.898438 223.632812 379.136719 222.015625 377.648438 220.878906 C 376.207031 219.742188 374.261719 219.175781 371.816406 219.175781 C 369.195312 219.175781 367.25 219.742188 365.984375 220.878906 C 364.714844 222.015625 363.953125 223.632812 363.691406 225.730469 C 363.425781 227.957031 363.296875 230.207031 363.296875 232.480469 C 363.296875 234.75 363.425781 237 363.691406 239.230469 C 363.90625 240.976562 364.519531 242.574219 365.523438 244.015625 C 366.53125 245.457031 368.148438 246.441406 370.375 246.964844 L 379.683594 249.191406 C 384.574219 250.371094 388.421875 252.121094 391.21875 254.4375 C 394.058594 256.707031 396.089844 259.546875 397.3125 262.957031 C 398.578125 266.320312 399.300781 270.253906 399.476562 274.753906 C 399.519531 275.757812 399.542969 276.808594 399.542969 277.902344 C 399.542969 278.992188 399.519531 280.085938 399.476562 281.175781 C 399.433594 282.269531 399.386719 283.316406 399.34375 284.324219 C 398.953125 293.761719 396.679688 300.511719 392.527344 304.574219 C 388.421875 308.640625 381.515625 310.671875 371.816406 310.671875 Z M 371.816406 310.671875 " fill-opacity="1" fill-rule="nonzero"/><g clip-path="url(#d5508fb026)"><g transform="matrix(1, 0, 0, 1, 67, 79)"><g clip-path="url(#d5f3e4e319)"><g clip-path="url(#d8ec32c5ff)"><path fill="#3d2fa9" d="M 0.269531 0.398438 L 364.382812 0.398438 L 364.382812 243.140625 L 0.269531 243.140625 Z M 0.269531 0.398438 " fill-opacity="1" fill-rule="nonzero"/></g></g></g></g><g transform="matrix(1, 0, 0, 1, 63, 84)"><g clip-path="url(#168332eba9)"><g fill="#ffffff" fill-opacity="1"><g transform="translate(4.147023, 89.010366)"><g><path d="M 30.59375 -15.296875 L 30.59375 -67.0625 C 30.59375 -70.195312 29.023438 -71.765625 25.890625 -71.765625 L 23.53125 -71.765625 C 20.394531 -71.765625 18.828125 -70.195312 18.828125 -67.0625 L 18.828125 -15.296875 C 18.828125 -12.160156 20.394531 -10.59375 23.53125 -10.59375 L 25.890625 -10.59375 C 29.023438 -10.59375 30.59375 -12.160156 30.59375 -15.296875 Z M 28.234375 0 L 21.171875 0 C 16.234375 0 12.644531 -1.113281 10.40625 -3.34375 C 8.175781 -5.582031 7.0625 -9.175781 7.0625 -14.125 L 7.0625 -68.234375 C 7.0625 -73.179688 8.175781 -76.769531 10.40625 -79 C 12.644531 -81.238281 16.234375 -82.359375 21.171875 -82.359375 L 28.234375 -82.359375 C 33.179688 -82.359375 36.769531 -81.238281 39 -79 C 41.238281 -76.769531 42.359375 -73.179688 42.359375 -68.234375 L 42.359375 -14.125 C 42.359375 -9.175781 41.238281 -5.582031 39 -3.34375 C 36.769531 -1.113281 33.179688 0 28.234375 0 Z M 28.234375 0 "/></g></g></g><g fill="#ffffff" fill-opacity="1"><g transform="translate(53.559496, 89.010366)"><g><path d="M 20 0 L 17.640625 0 C 14.503906 0 12.9375 -1.566406 12.9375 -4.703125 L 12.9375 -69.421875 C 12.9375 -70.984375 12.15625 -71.765625 10.59375 -71.765625 L 3.53125 -71.765625 C 1.957031 -71.765625 1.171875 -72.550781 1.171875 -74.125 L 1.171875 -80 C 1.171875 -81.570312 1.957031 -82.359375 3.53125 -82.359375 L 34.125 -82.359375 C 35.6875 -82.359375 36.46875 -81.570312 36.46875 -80 L 36.46875 -74.125 C 36.46875 -72.550781 35.6875 -71.765625 34.125 -71.765625 L 27.0625 -71.765625 C 25.488281 -71.765625 24.703125 -70.984375 24.703125 -69.421875 L 24.703125 -4.703125 C 24.703125 -1.566406 23.132812 0 20 0 Z M 20 0 "/></g></g></g><g fill="#ffffff" fill-opacity="1"><g transform="translate(91.207084, 89.010366)"><g><path d="M 36.46875 0 L 21.171875 0 C 16.234375 0 12.644531 -1.113281 10.40625 -3.34375 C 8.175781 -5.582031 7.0625 -9.175781 7.0625 -14.125 L 7.0625 -68.234375 C 7.0625 -73.179688 8.175781 -76.769531 10.40625 -79 C 12.644531 -81.238281 16.234375 -82.359375 21.171875 -82.359375 L 28.234375 -82.359375 C 33.179688 -82.359375 36.769531 -81.238281 39 -79 C 41.238281 -76.769531 42.359375 -73.179688 42.359375 -68.234375 L 42.359375 -55.890625 C 42.359375 -52.753906 40.789062 -51.1875 37.65625 -51.1875 L 35.296875 -51.1875 C 32.160156 -51.1875 30.59375 -52.753906 30.59375 -55.890625 L 30.59375 -67.0625 C 30.59375 -70.195312 29.023438 -71.765625 25.890625 -71.765625 L 23.53125 -71.765625 C 20.394531 -71.765625 18.828125 -70.195312 18.828125 -67.0625 L 18.828125 -15.296875 C 18.828125 -12.160156 20.394531 -10.59375 23.53125 -10.59375 L 36.46875 -10.59375 C 39.601562 -10.59375 41.171875 -9.019531 41.171875 -5.875 L 41.171875 -4.703125 C 41.171875 -1.566406 39.601562 0 36.46875 0 Z M 36.46875 0 "/></g></g></g><g fill="#ffffff" fill-opacity="1"><g transform="translate(137.090078, 89.010366)"><g><path d="M 20 0 L 17.640625 0 C 14.503906 0 12.9375 -1.566406 12.9375 -4.703125 L 12.9375 -69.421875 C 12.9375 -70.984375 12.15625 -71.765625 10.59375 -71.765625 L 3.53125 -71.765625 C 1.957031 -71.765625 1.171875 -72.550781 1.171875 -74.125 L 1.171875 -80 C 1.171875 -81.570312 1.957031 -82.359375 3.53125 -82.359375 L 34.125 -82.359375 C 35.6875 -82.359375 36.46875 -81.570312 36.46875 -80 L 36.46875 -74.125 C 36.46875 -72.550781 35.6875 -71.765625 34.125 -71.765625 L 27.0625 -71.765625 C 25.488281 -71.765625 24.703125 -70.984375 24.703125 -69.421875 L 24.703125 -4.703125 C 24.703125 -1.566406 23.132812 0 20 0 Z M 20 0 "/></g></g></g><g fill="#ffffff" fill-opacity="1"><g transform="translate(171.561165, 89.010366)"><g><path d="M 19.765625 -31.171875 L 26.359375 -31.171875 C 27.847656 -31.171875 28.550781 -31.957031 28.46875 -33.53125 L 26 -67.0625 C 25.925781 -68.550781 25.671875 -69.707031 25.234375 -70.53125 C 24.804688 -71.351562 24.082031 -71.765625 23.0625 -71.765625 C 22.039062 -71.765625 21.332031 -71.351562 20.9375 -70.53125 C 20.550781 -69.707031 20.28125 -68.550781 20.125 -67.0625 L 17.640625 -33.53125 C 17.566406 -31.957031 18.273438 -31.171875 19.765625 -31.171875 Z M 37.765625 -68.234375 L 42.46875 -4.703125 C 42.707031 -1.566406 41.140625 0 37.765625 0 L 35.421875 0 C 33.765625 0 32.601562 -0.367188 31.9375 -1.109375 C 31.269531 -1.859375 30.859375 -3.054688 30.703125 -4.703125 L 29.65625 -18.234375 C 29.570312 -19.804688 28.742188 -20.59375 27.171875 -20.59375 L 18.9375 -20.59375 C 17.375 -20.59375 16.550781 -19.804688 16.46875 -18.234375 L 15.40625 -4.703125 C 15.332031 -3.054688 14.921875 -1.859375 14.171875 -1.109375 C 13.429688 -0.367188 12.273438 0 10.703125 0 L 8.359375 0 C 4.984375 0 3.410156 -1.566406 3.640625 -4.703125 L 8.359375 -68.234375 C 8.742188 -73.179688 9.9375 -76.769531 11.9375 -79 C 13.9375 -81.238281 17.445312 -82.359375 22.46875 -82.359375 L 23.65625 -82.359375 C 28.59375 -82.359375 32.097656 -81.238281 34.171875 -79 C 36.253906 -76.769531 37.453125 -73.179688 37.765625 -68.234375 Z M 37.765625 -68.234375 "/></g></g></g><g fill="#ffffff" fill-opacity="1"><g transform="translate(217.679457, 89.010366)"><g><path d="M 38 0 L 35.65625 0 C 32.507812 0 30.9375 -1.566406 30.9375 -4.703125 L 30.9375 -69.421875 C 30.9375 -70.984375 30.15625 -71.765625 28.59375 -71.765625 L 26.828125 -71.765625 C 25.253906 -71.765625 24.46875 -70.984375 24.46875 -69.421875 L 19.171875 -16 C 18.859375 -12.625 18.113281 -9.9375 16.9375 -7.9375 C 15.757812 -5.9375 14.382812 -4.382812 12.8125 -3.28125 C 11.25 -2.1875 9.6875 -1.171875 8.125 -0.234375 C 5.457031 1.410156 3.375 0.820312 1.875 -2 L 0.828125 -3.875 C -0.660156 -6.707031 -0.0351562 -8.867188 2.703125 -10.359375 C 3.804688 -10.984375 4.847656 -11.84375 5.828125 -12.9375 C 6.804688 -14.039062 7.332031 -15.21875 7.40625 -16.46875 L 13.296875 -77.65625 C 13.296875 -80.789062 14.863281 -82.359375 18 -82.359375 L 38 -82.359375 C 41.132812 -82.359375 42.703125 -80.789062 42.703125 -77.65625 L 42.703125 -4.703125 C 42.703125 -1.566406 41.132812 0 38 0 Z M 38 0 "/></g></g></g><g fill="#ffffff" fill-opacity="1"><g transform="translate(267.444876, 89.010366)"><g><path d="M 19.765625 -31.171875 L 26.359375 -31.171875 C 27.847656 -31.171875 28.550781 -31.957031 28.46875 -33.53125 L 26 -67.0625 C 25.925781 -68.550781 25.671875 -69.707031 25.234375 -70.53125 C 24.804688 -71.351562 24.082031 -71.765625 23.0625 -71.765625 C 22.039062 -71.765625 21.332031 -71.351562 20.9375 -70.53125 C 20.550781 -69.707031 20.28125 -68.550781 20.125 -67.0625 L 17.640625 -33.53125 C 17.566406 -31.957031 18.273438 -31.171875 19.765625 -31.171875 Z M 37.765625 -68.234375 L 42.46875 -4.703125 C 42.707031 -1.566406 41.140625 0 37.765625 0 L 35.421875 0 C 33.765625 0 32.601562 -0.367188 31.9375 -1.109375 C 31.269531 -1.859375 30.859375 -3.054688 30.703125 -4.703125 L 29.65625 -18.234375 C 29.570312 -19.804688 28.742188 -20.59375 27.171875 -20.59375 L 18.9375 -20.59375 C 17.375 -20.59375 16.550781 -19.804688 16.46875 -18.234375 L 15.40625 -4.703125 C 15.332031 -3.054688 14.921875 -1.859375 14.171875 -1.109375 C 13.429688 -0.367188 12.273438 0 10.703125 0 L 8.359375 0 C 4.984375 0 3.410156 -1.566406 3.640625 -4.703125 L 8.359375 -68.234375 C 8.742188 -73.179688 9.9375 -76.769531 11.9375 -79 C 13.9375 -81.238281 17.445312 -82.359375 22.46875 -82.359375 L 23.65625 -82.359375 C 28.59375 -82.359375 32.097656 -81.238281 34.171875 -79 C 36.253906 -76.769531 37.453125 -73.179688 37.765625 -68.234375 Z M 37.765625 -68.234375 "/></g></g></g><g fill="#ffffff" fill-opacity="1"><g transform="translate(313.563168, 89.010366)"><g><path d="M 36.46875 0 L 34.125 0 C 30.976562 0 29.40625 -1.566406 29.40625 -4.703125 L 29.40625 -28.828125 C 29.40625 -30.316406 28.9375 -31.0625 28 -31.0625 C 27.445312 -31.0625 26.972656 -30.863281 26.578125 -30.46875 C 26.191406 -30.082031 25.882812 -29.570312 25.65625 -28.9375 L 16.59375 -4.46875 C 16.039062 -2.976562 15.273438 -1.859375 14.296875 -1.109375 C 13.316406 -0.367188 11.882812 0 10 0 L 7.890625 0 C 6.628906 0 5.585938 -0.410156 4.765625 -1.234375 C 3.941406 -2.054688 3.804688 -3.210938 4.359375 -4.703125 L 14.234375 -31.765625 C 8.660156 -33.253906 5.875 -37.765625 5.875 -45.296875 L 5.875 -68.234375 C 5.875 -73.179688 6.992188 -76.769531 9.234375 -79 C 11.472656 -81.238281 15.0625 -82.359375 20 -82.359375 L 36.46875 -82.359375 C 39.601562 -82.359375 41.171875 -80.789062 41.171875 -77.65625 L 41.171875 -4.703125 C 41.171875 -1.566406 39.601562 0 36.46875 0 Z M 29.40625 -43.65625 L 29.40625 -69.421875 C 29.40625 -70.984375 28.625 -71.765625 27.0625 -71.765625 L 22.359375 -71.765625 C 19.210938 -71.765625 17.640625 -70.195312 17.640625 -67.0625 L 17.640625 -46.46875 C 17.640625 -43.332031 19.210938 -41.765625 22.359375 -41.765625 L 27.0625 -41.765625 C 28.625 -41.765625 29.40625 -42.394531 29.40625 -43.65625 Z M 29.40625 -43.65625 "/></g></g></g><g fill="#ffffff" fill-opacity="1"><g transform="translate(1.028544, 227.667792)"><g><path d="M 54.671875 0 L 51.25 0 C 46.695312 0 44.421875 -2.273438 44.421875 -6.828125 L 44.421875 -100.8125 C 44.421875 -103.082031 43.28125 -104.21875 41 -104.21875 L 30.75 -104.21875 C 28.476562 -104.21875 27.34375 -103.082031 27.34375 -100.8125 L 27.34375 -6.828125 C 27.34375 -2.273438 25.0625 0 20.5 0 L 17.078125 0 C 12.523438 0 10.25 -2.273438 10.25 -6.828125 L 10.25 -112.765625 C 10.25 -117.316406 12.523438 -119.59375 17.078125 -119.59375 L 54.671875 -119.59375 C 59.234375 -119.59375 61.515625 -117.316406 61.515625 -112.765625 L 61.515625 -6.828125 C 61.515625 -2.273438 59.234375 0 54.671875 0 Z M 54.671875 0 "/></g></g></g><g fill="#ffffff" fill-opacity="1"><g transform="translate(72.78969, 227.667792)"><g><path d="M 52.96875 -8.546875 L 52.96875 -6.828125 C 52.96875 -2.273438 50.6875 0 46.125 0 L 17.078125 0 C 12.523438 0 10.25 -2.273438 10.25 -6.828125 L 10.25 -112.765625 C 10.25 -117.316406 12.523438 -119.59375 17.078125 -119.59375 L 46.125 -119.59375 C 50.6875 -119.59375 52.96875 -117.316406 52.96875 -112.765625 L 52.96875 -111.0625 C 52.96875 -106.5 50.6875 -104.21875 46.125 -104.21875 L 30.75 -104.21875 C 28.476562 -104.21875 27.34375 -103.082031 27.34375 -100.8125 L 27.34375 -77.734375 C 27.34375 -75.460938 28.476562 -74.328125 30.75 -74.328125 L 39.296875 -74.328125 C 43.847656 -74.328125 46.125 -72.046875 46.125 -67.484375 L 46.125 -65.78125 C 46.125 -61.226562 43.847656 -58.953125 39.296875 -58.953125 L 30.75 -58.953125 C 28.476562 -58.953125 27.34375 -57.8125 27.34375 -55.53125 L 27.34375 -18.796875 C 27.34375 -16.515625 28.476562 -15.375 30.75 -15.375 L 46.125 -15.375 C 50.6875 -15.375 52.96875 -13.097656 52.96875 -8.546875 Z M 52.96875 -8.546875 "/></g></g></g><g fill="#ffffff" fill-opacity="1"><g transform="translate(129.173445, 227.667792)"><g><path d="M 82.015625 0 L 17.078125 0 C 12.523438 0 10.25 -2.273438 10.25 -6.828125 L 10.25 -112.765625 C 10.25 -117.316406 12.523438 -119.59375 17.078125 -119.59375 L 20.5 -119.59375 C 25.0625 -119.59375 27.34375 -117.316406 27.34375 -112.765625 L 27.34375 -18.796875 C 27.34375 -16.515625 28.476562 -15.375 30.75 -15.375 L 37.59375 -15.375 C 39.863281 -15.375 41 -16.515625 41 -18.796875 L 41 -112.765625 C 41 -117.316406 43.28125 -119.59375 47.84375 -119.59375 L 51.25 -119.59375 C 55.8125 -119.59375 58.09375 -117.316406 58.09375 -112.765625 L 58.09375 -18.796875 C 58.09375 -16.515625 59.234375 -15.375 61.515625 -15.375 L 68.34375 -15.375 C 70.625 -15.375 71.765625 -16.515625 71.765625 -18.796875 L 71.765625 -112.765625 C 71.765625 -117.316406 74.039062 -119.59375 78.59375 -119.59375 L 82.015625 -119.59375 C 86.566406 -119.59375 88.84375 -117.316406 88.84375 -112.765625 L 88.84375 -6.828125 C 88.84375 -2.273438 86.566406 0 82.015625 0 Z M 82.015625 0 "/></g></g></g><g fill="#ffffff" fill-opacity="1"><g transform="translate(228.272189, 227.667792)"><g><path d="M 48.015625 -64.078125 L 67.484375 -6.828125 C 68.285156 -4.671875 68.085938 -2.992188 66.890625 -1.796875 C 65.691406 -0.597656 64.179688 0 62.359375 0 L 58.953125 0 C 54.503906 0 51.597656 -2.164062 50.234375 -6.5 L 33.484375 -55.703125 C 33.140625 -56.609375 32.679688 -57.375 32.109375 -58 C 31.546875 -58.632812 30.8125 -58.953125 29.90625 -58.953125 C 28.195312 -58.953125 27.34375 -57.8125 27.34375 -55.53125 L 27.34375 -6.828125 C 27.34375 -2.273438 25.0625 0 20.5 0 L 17.078125 0 C 12.523438 0 10.25 -2.273438 10.25 -6.828125 L 10.25 -112.765625 C 10.25 -117.316406 12.523438 -119.59375 17.078125 -119.59375 L 20.5 -119.59375 C 25.0625 -119.59375 27.34375 -117.316406 27.34375 -112.765625 L 27.34375 -77.734375 C 27.34375 -75.460938 28.082031 -74.328125 29.5625 -74.328125 C 30.925781 -74.328125 32.007812 -75.40625 32.8125 -77.5625 L 45.109375 -113.109375 C 45.785156 -115.160156 46.78125 -116.753906 48.09375 -117.890625 C 49.40625 -119.023438 51.316406 -119.59375 53.828125 -119.59375 L 57.234375 -119.59375 C 59.054688 -119.59375 60.566406 -119.023438 61.765625 -117.890625 C 62.960938 -116.753906 63.160156 -115.046875 62.359375 -112.765625 L 48.015625 -70.5625 C 47.328125 -68.394531 47.328125 -66.234375 48.015625 -64.078125 Z M 48.015625 -64.078125 "/></g></g></g><g fill="#ffffff" fill-opacity="1"><g transform="translate(297.983019, 227.667792)"><g><path d="M 28.703125 -45.28125 L 38.265625 -45.28125 C 40.429688 -45.28125 41.457031 -46.414062 41.34375 -48.6875 L 37.765625 -97.390625 C 37.648438 -99.554688 37.273438 -101.234375 36.640625 -102.421875 C 36.015625 -103.617188 34.960938 -104.21875 33.484375 -104.21875 C 32.003906 -104.21875 30.976562 -103.617188 30.40625 -102.421875 C 29.84375 -101.234375 29.445312 -99.554688 29.21875 -97.390625 L 25.625 -48.6875 C 25.507812 -46.414062 26.535156 -45.28125 28.703125 -45.28125 Z M 54.84375 -99.09375 L 61.6875 -6.828125 C 62.019531 -2.273438 59.738281 0 54.84375 0 L 51.421875 0 C 49.035156 0 47.359375 -0.539062 46.390625 -1.625 C 45.421875 -2.707031 44.820312 -4.441406 44.59375 -6.828125 L 43.0625 -26.484375 C 42.945312 -28.765625 41.75 -29.90625 39.46875 -29.90625 L 27.515625 -29.90625 C 25.234375 -29.90625 24.035156 -28.765625 23.921875 -26.484375 L 22.375 -6.828125 C 22.269531 -4.441406 21.675781 -2.707031 20.59375 -1.625 C 19.507812 -0.539062 17.828125 0 15.546875 0 L 12.125 0 C 7.226562 0 4.953125 -2.273438 5.296875 -6.828125 L 12.125 -99.09375 C 12.695312 -106.269531 14.4375 -111.476562 17.34375 -114.71875 C 20.25 -117.96875 25.347656 -119.59375 32.640625 -119.59375 L 34.34375 -119.59375 C 41.519531 -119.59375 46.613281 -117.96875 49.625 -114.71875 C 52.644531 -111.476562 54.382812 -106.269531 54.84375 -99.09375 Z M 54.84375 -99.09375 "/></g></g></g></g></g></svg>